<?xml version="1.0" encoding="UTF-8" standalone="no"?>
<!-- Created with Inkscape (http://www.inkscape.org/) -->

<svg
   width="297mm"
   height="210mm"
   viewBox="0 0 297 210"
   version="1.1"
   id="svg5"
   inkscape:version="1.1 (c68e22c387, 2021-05-23)"
   sodipodi:docname="aventuraMapColor.svg"
   xmlns:inkscape="http://www.inkscape.org/namespaces/inkscape"
   xmlns:sodipodi="http://sodipodi.sourceforge.net/DTD/sodipodi-0.dtd"
   xmlns="http://www.w3.org/2000/svg"
   xmlns:svg="http://www.w3.org/2000/svg">
  <sodipodi:namedview
     id="namedview7"
     pagecolor="#ffffff"
     bordercolor="#666666"
     borderopacity="1.0"
     inkscape:pageshadow="2"
     inkscape:pageopacity="0.0"
     inkscape:pagecheckerboard="0"
     inkscape:document-units="mm"
     showgrid="false"
     inkscape:zoom="0.65512531"
     inkscape:cx="415.95096"
     inkscape:cy="379.31674"
     inkscape:window-width="1366"
     inkscape:window-height="705"
     inkscape:window-x="-8"
     inkscape:window-y="-8"
     inkscape:window-maximized="1"
     inkscape:current-layer="g162" />
  <defs
     id="defs2" />
  <g
     inkscape:label="Capa 1"
     inkscape:groupmode="layer"
     id="layer1">
    <g
       id="g162"
       transform="matrix(0.26458333,0,0,0.26458333,43.569976,4.7818917)">
      <path
         id="efdf5e1f-6b90-40c1-9274-afa2b16f39be"
         data-name="Path 482"
         d="m 431.15463,626.89286 c 0,0 -17.0835,-38.91004 34.16564,-68.09226 z"
         fill="#e6e6e6"
         style="fill:#bec8b7;stroke-width:1.28857" />
      <path
         id="af7fe47f-56e6-4bb6-aa0f-d6efaf86a160"
         data-name="Path 483"
         d="m 431.15463,626.89286 c 0,0 -5.4119,-36.91457 -47.30181,-36.5978 z"
         fill="#e6e6e6"
         style="fill:#bec8b7;stroke-width:1.51505" />
      <path
         id="a08d42bc-6ae2-46d7-9736-aba59e52cc48"
         data-name="Path 482"
         d="m 816.46633,627.60068 c 0,0 -22.56954,-51.40533 45.13732,-89.95899 z"
         fill="#e6e6e6"
         style="fill:#bec8b7;stroke-width:1.28857" />
      <path
         id="bafd7749-4c33-42a1-9524-e744b9f16454"
         data-name="Path 483"
         d="m 767.69996,625.95774 c 0,0 -6.88434,-36.63931 -60.17135,-36.32485"
         fill="#e6e6e6"
         style="fill:#bec8b7;stroke-width:1.28857" />
      <polygon
         points="466.576,170.731 467.821,170.069 484.46,178.908 483.215,179.569 "
         fill="#cbcbcb"
         id="polygon13"
         transform="matrix(1.0674618,0,0,0.99383048,-3.1384085e-6,0)" />
      <polygon
         points="467.457,178.908 484.095,170.069 485.34,170.731 468.701,179.569 "
         fill="#cbcbcb"
         id="polygon15"
         transform="matrix(1.0674618,0,0,0.99383048,-3.1384085e-6,0)" />
      <rect
         x="57.214596"
         y="376.35837"
         width="1.7776496"
         height="5.5592031"
         transform="matrix(0.48218888,-0.87606728,0.90254537,0.43059476,0,0)"
         fill="#cbcbcb"
         id="rect17"
         style="stroke-width:1.03086" />
      <path
         d="m 472.15362,161.97291 -9.9867,-4.76442 0.85704,-1.5574 9.9867,4.76442 z m -19.97339,-9.52892 -9.98693,-4.76489 0.85704,-1.5574 9.98693,4.76489 z m -19.97362,-9.52935 -9.98669,-4.76442 0.85703,-1.5574 9.98669,4.76442 z m -19.9734,-9.52892 -9.98692,-4.76443 0.85704,-1.5574 9.98693,4.76442 z m -19.97361,-9.52893 -9.9867,-4.76442 0.85704,-1.55741 9.98669,4.76443 z"
         fill="#cbcbcb"
         id="path19"
         style="stroke-width:1.02999" />
      <rect
         x="57.215271"
         y="503.63315"
         width="1.7776496"
         height="5.5592031"
         transform="matrix(0.48218888,-0.87606728,0.90254537,0.43059476,0,0)"
         fill="#cbcbcb"
         id="rect21"
         style="stroke-width:1.03086" />
      <path
         d="m 104.15347,227.50812 q 0,0.81977 -0.057,1.62586 a 26.453314,24.62862 0 0 1 -2.47865,8.94139 c -0.0111,0.024 -0.024,0.0463 -0.035,0.0686 -0.0663,0.13019 -0.13442,0.26038 -0.20433,0.38891 a 26.139694,24.336633 0 0 1 -1.4077,2.31287 26.583481,24.749808 0 0 1 -21.817072,11.43072 l 0.263183,14.08968 3.43189,-1.68241 0.612797,1.08449 -4.018908,1.97023 0.49131,26.168 0.0053,0.34951 -2.653508,0.54994 0.0053,-0.35121 0.835449,-42.17651 a 26.530695,24.700663 0 0 1 -18.769736,-7.60336 c -0.167399,-0.161 -0.333048,-0.32722 -0.494992,-0.49169 l -0.01847,-0.0189 a 26.639853,24.802292 0 0 1 -4.846981,-6.98316 c 0.02583,0.0274 0.05337,0.0531 0.07921,0.0805 a 26.616572,24.780616 0 0 1 12.619811,-31.93135 c 0.09202,-0.0428 0.185898,-0.084 0.277914,-0.12678 a 26.636843,24.799489 0 0 1 34.508673,9.75346 c 0.162,0.25356 0.31843,0.51227 0.46929,0.77267 a 26.471301,24.645366 0 0 1 3.20187,11.77854 z"
         fill="#e5e5e5"
         id="path23"
         style="fill:#dee3db;stroke-width:1.02999" />
      <ellipse
         cx="100.57141"
         cy="205.68478"
         fill="#e5e5e5"
         id="circle25"
         style="fill:#bec8b7;stroke-width:1.02999"
         rx="34.878471"
         ry="32.472626" />
      <path
         d="M 74.818264,183.99562 A 34.881192,32.47516 0 0 0 132.93611,218.3637 34.881448,32.475399 0 1 1 74.818264,183.99562 Z"
         opacity="0.2"
         style="isolation:isolate;stroke-width:1.02999"
         id="path27" />
      <polygon
         points="93.704,239.552 93.879,230.056 94.132,216.293 94.132,216.291 94.304,206.962 94.396,206.962 94.572,217.069 94.801,230.224 94.965,239.558 94.965,239.627 94.972,240.012 94.972,240.014 95.289,258.209 95.322,260.017 95.977,297.624 95.983,297.986 92.646,297.05 92.653,296.691 93.653,242.341 93.703,239.631 "
         fill="#3f3d56"
         id="polygon29"
         transform="matrix(1.0674618,0,0,0.99383048,-3.1384085e-6,0)" />
      <rect
         x="-39.251926"
         y="275.67084"
         width="6.4208984"
         height="1.6323481"
         transform="matrix(0.8979322,-0.4401338,0.49223389,0.87046298,0,0)"
         fill="#3f3d56"
         id="rect31"
         style="stroke-width:1.03088" />
      <path
         d="m 552.69914,100.5919 a 888.42102,827.13959 0 0 0 -132.09967,1.89052 c -21.16947,1.78154 -42.67573,3.70583 -63.45406,8.00508 -16.73622,3.4629 -36.16047,9.31569 -46.58847,22.94786 a 23.794491,22.153197 0 0 0 -3.7151,19.39322 c 2.48641,7.77116 8.67163,14.2398 15.25882,19.30628 15.16079,11.66076 33.97145,18.4463 50.77426,27.71042 30.67885,16.91461 58.75644,39.71322 76.77825,68.67468 7.93031,12.74424 15.47383,29.68969 6.64346,43.73231 -8.65094,13.75728 -27.96295,18.49693 -43.71214,20.73204 -19.7401,2.80152 -40.07369,2.04165 -59.89614,0.47288 a 624.08902,581.04067 0 0 1 -64.7427,-8.82856 C 246.02127,317.13371 204.47853,307.59978 161.9715,303.26426 a 364.83779,339.67204 0 0 0 -64.22879,-1.72917 c -19.34704,1.21498 -38.859782,4.06406 -57.034888,10.55899 -14.005483,5.00493 -28.934619,12.5772 -36.4998268,25.20553 -7.2925252,12.17316 -4.44820926,26.21115 3.4924467,37.44256 9.5542311,13.5137 24.4526991,22.77401 39.9422201,29.54234 17.636177,7.70634 36.49972,12.70156 55.387388,16.94977 9.57929,2.15463 19.2104,4.10225 28.84239,6.04 2.00937,0.40424 2.86793,-2.46929 0.85132,-2.87498 C 113.30003,420.49165 93.820119,416.57123 74.878736,410.91457 57.350522,405.67992 39.412724,398.97433 25.058683,387.98259 13.446226,379.09027 2.4051804,366.10176 3.0905976,351.33422 3.7815549,336.44721 17.1975,326.05292 30.346953,319.65503 46.780089,311.65945 65.450433,307.76474 83.74518,305.72917 a 324.44076,302.06152 0 0 1 63.07685,-0.79869 c 42.40674,3.00412 83.86594,11.99777 125.44427,19.8424 40.39241,7.62088 82.0456,14.67774 123.44001,12.72308 16.40709,-0.77475 33.98712,-2.96366 48.4738,-10.67392 6.63277,-3.53018 12.61358,-8.50868 15.98457,-14.98753 a 36.052379,33.565561 0 0 0 2.7547,-19.72228 C 460.5703,277.43329 451.20585,263.82222 441.86221,252.13028 A 207.53231,193.21716 0 0 0 406.48685,218.0139 279.04021,259.79259 0 0 0 359.67938,189.62488 c -8.79398,-4.31069 -17.71289,-8.45571 -26.09363,-13.44851 -8.03552,-4.78718 -15.9621,-10.54726 -20.86918,-18.31867 -4.24414,-6.72155 -5.0226,-14.39301 -0.60205,-21.2101 4.47111,-6.89505 12.1745,-11.70393 19.77103,-15.21804 18.3027,-8.46675 39.58148,-10.73308 59.60625,-13.05544 A 881.63172,820.81861 0 0 1 521.13565,102.356 q 15.79236,0.34586 31.56355,1.21736 c 2.05867,0.11275 2.05166,-2.86912 0,-2.9815 z"
         id="path33"
         style="stroke-width:1.02999" />
      <path
         d="m 524.77194,5.0209509 6.64969,-4.95160139 c -5.16584,-0.53062597 -7.28839,2.09238089 -8.15706,4.16851259 -4.03577,-1.5602144 -8.42918,0.4845222 -8.42918,0.4845222 l 13.30478,4.4969339 a 10.068,9.3735308 0 0 0 -3.36823,-4.1983673 z"
         fill="#3f3d56"
         id="path35"
         style="stroke-width:1.02999" />
      <path
         d="m 492.50033,20.696897 6.64969,-4.951611 c -5.16585,-0.530616 -7.2884,2.092381 -8.15707,4.168513 -4.03577,-1.560205 -8.42917,0.484532 -8.42917,0.484532 l 13.30477,4.496934 a 10.067926,9.3734613 0 0 0 -3.36822,-4.198368 z"
         fill="#3f3d56"
         id="path37"
         style="stroke-width:1.02999" />
      <path
         d="m 524.77194,45.517138 6.64969,-4.951601 c -5.16584,-0.530626 -7.28839,2.09238 -8.15706,4.168512 -4.03577,-1.560214 -8.42918,0.484522 -8.42918,0.484522 l 13.30478,4.496934 a 10.068,9.3735308 0 0 0 -3.36823,-4.198367 z"
         fill="#3f3d56"
         id="path39"
         style="stroke-width:1.02999" />
      <g
         id="e2dfab6d-8627-4cc0-b13e-69de57259a01"
         data-name="Group 27"
         transform="matrix(1.0674618,0,0,0.99383048,-3.1384085e-6,0)">
        <circle
           id="bedd3b2f-f695-46eb-9812-80ad4d1341b6"
           data-name="Ellipse 7"
           cx="398.21854"
           cy="34.412971"
           r="18.768471"
           fill="#ff6583"
           style="fill:#d35f5f" />
        <path
           id="f8d22fd6-a75d-4da9-80c1-fba8d7f50740"
           data-name="Path 65"
           d="m 692.32061,219.24825 h -79.63353 l 15.4306,-22.41441 1.11,-1.61523 20.10819,-29.20986 a 4.0685,4.0685 0 0 1 6.04372,-0.36091 3.63814,3.63814 0 0 1 0.28961,0.36091 z"
           transform="translate(-183.98585,-127)"
           fill="#53b726"
           style="fill:#00aa00" />
        <path
           id="efdddea5-7f44-48b8-bec9-83339a7f085f"
           data-name="Path 63"
           d="m 641.059,219.24736 h -92.0731 a 1.88476,1.88476 0 0 1 -0.34417,-0.0273 l 43.54727,-75.4242 a 3.04826,3.04826 0 0 1 5.307,0 l 29.224,50.61377 1.39957,2.42155 z"
           transform="translate(-183.98585,-127)"
           fill="#53b726" />
      </g>
      <path
         d="m 402.40596,263.59848 c 9.31593,4.33509 14.98761,10.06054 14.98761,16.34036 0,13.52802 -26.29291,24.49464 -58.72641,24.49464 -14.10117,0 -27.03799,-2.07468 -37.16141,-5.52981 10.75243,5.00367 26.3608,8.15424 43.73876,8.15424 32.43348,0 58.72641,-10.96661 58.72641,-24.49464 0,-7.64646 -8.40383,-14.47285 -21.56496,-18.96479 z"
         fill="#f1f1f1"
         id="path45"
         style="fill:#6f8a91;stroke-width:1.02999" />
      <path
         d="m 423.12794,272.89081 c 10.51194,4.89164 16.9118,11.35217 16.9118,18.43817 0,15.26479 -29.66845,27.63932 -66.26581,27.63932 -15.91158,0 -30.50919,-2.34102 -41.93228,-6.23973 12.13286,5.64604 29.74507,9.20109 49.35405,9.20109 36.59736,0 66.2658,-12.37453 66.2658,-27.63932 -3e-5,-8.62814 -9.48276,-16.33086 -24.33356,-21.39953 z"
         fill="#f1f1f1"
         id="path47"
         style="fill:#374548;stroke-width:1.02999" />
      <path
         d="m 394.47566,267.69151 c 6.56331,3.05421 10.55916,7.08794 10.55916,11.51221 0,9.53084 -18.52404,17.25712 -41.37428,17.25712 a 77.712732,72.35227 0 0 1 -26.18118,-3.89589 c 7.57537,3.52522 18.57188,5.74488 30.8151,5.74488 22.85024,0 41.37428,-7.72627 41.37428,-17.25713 0,-5.38713 -5.92073,-10.1965 -15.19308,-13.36119 z"
         fill="#f1f1f1"
         id="path49"
         style="fill:#b7c4c8;stroke-width:1.02999" />
      <path
         d="m 302.25706,265.94189 c 0,0 1.44225,19.62683 42.78561,19.62683 41.34336,0 53.68669,-19.62683 53.68669,-19.62683 z"
         fill="#3f3d56"
         id="path51"
         style="stroke-width:1.02999" />
      <path
         d="m 360.93946,214.44612 a 29.021478,27.019637 0 0 0 -20.90517,-5.32395 29.122855,27.114021 0 0 1 -3.52642,53.29827 29.128801,27.119557 0 0 0 24.43163,-47.97432 z"
         fill="#3f3d56"
         id="path53"
         style="stroke-width:1.02999" />
      <rect
         x="344.57288"
         y="205.58009"
         width="2.8188674"
         height="62.470238"
         fill="#3f3d56"
         id="rect55"
         style="stroke-width:1.02999" />
      <path
         d="m 532.64592,159.16464 -0.0152,-0.024 -0.0381,-1.52594 8.83097,-11.93721 -8.82044,10.79506 -0.0317,0.32254 -0.30189,-12.20125 7.62755,-12.37617 -7.64911,10.2327 0.0798,-25.27793 -4.6e-4,-0.0842 -0.002,0.0828 -0.50651,19.92241 -6.95174,-8.09246 6.92926,9.80875 -0.15187,10.91381 -6.39704,-10.65142 6.37364,12.25591 -0.0849,6.06862 -0.23353,16.81289 -0.017,1.25631 q 0.88363,0.006 1.7494,-0.0274 l -0.40008,-16.1491 z"
         fill="#cbcbcb"
         id="path57"
         style="stroke-width:1.02999" />
      <path
         d="m 490.36293,164.4135 -0.0152,-0.024 -0.0381,-1.52595 8.83099,-11.93721 -8.82044,10.79506 -0.0317,0.32255 -0.30189,-12.20126 7.62755,-12.37617 -7.64915,10.23267 0.0799,-25.27794 -4.6e-4,-0.0842 -0.002,0.0828 -0.50651,19.92241 -6.95173,-8.09247 6.92925,9.80877 -0.15186,10.91381 -6.39705,-10.65143 6.37365,12.25592 -0.0849,6.06861 -0.23353,16.8129 -0.017,1.25631 q 0.88366,0.006 1.7494,-0.0274 l -0.40007,-16.1491 z"
         fill="#cbcbcb"
         id="path59"
         style="stroke-width:1.02999" />
      <path
         d="m 511.03461,147.79213 -0.0152,-0.024 -0.0381,-1.52594 8.83098,-11.93722 -8.82043,10.79506 -0.0317,0.32255 -0.30189,-12.20125 7.62755,-12.37617 -7.64911,10.2327 0.0799,-25.27794 -4.6e-4,-0.0842 -0.002,0.0828 -0.50651,19.92241 -6.95174,-8.09247 6.92926,9.80877 -0.15187,10.9138 -6.39704,-10.65143 6.37364,12.25592 -0.0849,6.06861 -0.23353,16.8129 -0.017,1.25631 q 0.88366,0.006 1.7494,-0.0274 l -0.40008,-16.14909 z"
         fill="#cbcbcb"
         id="path61"
         style="stroke-width:1.02999" />
      <ellipse
         cx="161.81638"
         cy="427.78156"
         fill="#53b726"
         id="circle63"
         style="fill:#55ffdd;stroke-width:1.02999"
         rx="11.27546"
         ry="10.497703" />
      <polygon
         points="715.399,625.419 705.62,629.052 686.952,593.062 701.385,587.7 "
         fill="#ffb7b7"
         id="polygon65"
         transform="matrix(1.3395664,0,0,1.2395287,-273.96316,-171.80576)" />
      <path
         d="m 692.4197,614.0194 -42.23855,14.52132 -0.19853,-0.49435 a 17.539453,16.229619 0 0 1 10.33143,-20.86491 l 0.001,-3.7e-4 25.79794,-8.8691 z"
         fill="#2f2e41"
         id="path67"
         style="stroke-width:1.28857" />
      <polygon
         points="619.162,635.574 608.73,635.573 603.767,595.335 619.164,595.336 "
         fill="#ffb7b7"
         id="polygon69"
         transform="matrix(1.3395664,0,0,1.2395287,-273.96316,-171.80576)" />
      <path
         d="m 557.86994,628.54072 -45.05978,-9.7e-4 v -0.52737 a 17.539465,16.229631 0 0 1 17.53851,-16.22882 h 10e-4 l 27.52096,9.7e-4 z"
         fill="#2f2e41"
         id="path71"
         style="stroke-width:1.28857" />
      <path
         d="m 619.42576,270.09189 -4.55947,-8.43792 -38.75545,17.93061 1.13986,7.38319 -7.40914,8.96529 c 0,0 -12.53853,6.32846 -10.25877,27.42333 l 2.27972,20.04011 2.84967,25.84116 -19.94764,63.81181 -10.25881,84.37933 -7.40914,68.03082 35.90575,-1.58211 33.05616,-110.74789 58.13318,119.18579 39.89529,-9.49267 -54.71356,-118.13106 -6.8392,-49.57285 c 0,0 4.55946,-26.36849 -17.09799,-44.29915 l 3.4196,-9.49267 v -11.69767 l 11.39865,-55.80578 z"
         fill="#2f2e41"
         id="path73"
         style="stroke-width:1.28857" />
      <rect
         x="-307.52579"
         y="708.02692"
         width="86.006516"
         height="1.3323977"
         transform="matrix(0.29157053,-0.95654933,0.96758923,0.25252936,0,0)"
         opacity="0.2"
         id="rect75"
         style="stroke-width:1.28911" />
      <rect
         x="562.4325"
         y="369.23764"
         width="55.853436"
         height="5.2737107"
         fill="#3f3d56"
         id="rect77"
         style="stroke-width:1.28857" />
      <ellipse
         cx="562.4325"
         cy="372.40186"
         rx="2.2797277"
         ry="5.2737107"
         fill="#3f3d56"
         id="ellipse79"
         style="stroke-width:1.28857" />
      <ellipse
         cx="388.86472"
         cy="473.069"
         transform="matrix(0.89233782,-0.45136816,0.50863933,0.86097969,0,0)"
         fill="#ffb7b7"
         id="circle81"
         rx="29.876787"
         ry="28.652504"
         style="stroke-width:1.28995" />
      <ellipse
         cx="635.17261"
         cy="203.41539"
         fill="#2f2e41"
         id="circle83"
         rx="18.012104"
         ry="19.31765"
         style="stroke-width:0.929616" />
      <path
         d="m 661.12727,194.20894 a 23.242304,24.873459 0 1 1 -45.33696,10.19984 23.242548,24.873718 0 0 0 45.33696,-10.19984 z"
         fill="#2f2e41"
         id="path85"
         style="stroke-width:1.19819" />
      <path
         d="m 564.93899,219.18526 a 31.780236,29.406911 0 1 0 18.96424,-23.6745 c -5.30817,-3.96113 -11.88931,-2.73346 -17.23963,1.44707 -6.05041,4.72696 -7.84595,7.97413 -12.53835,15.74762 4.61398,0.59963 6.19961,5.88018 10.81374,6.47981 z"
         fill="#2f2e41"
         id="path87"
         style="stroke-width:1.28857" />
      <path
         d="m 673.72007,308.5256 c -0.34006,8.33203 -1.01395,24.73203 -1.01395,25.56915 0,0.88208 -13.4368,26.62542 -19.24152,37.70481 v 0.006 c -0.41299,0.78091 -0.7833,1.48887 -1.1112,2.11251 a 5.3964432,4.9934408 0 0 1 -4.9606,2.82041 l -25.36783,-0.42146 a 5.4066374,5.0028736 0 0 1 -5.31283,-4.87671 L 613.88259,268.1692 a 2.7591719,2.5531189 0 0 1 2.75663,-2.61812 h 32.71474 a 7.3552913,6.8060036 0 0 1 6.61822,3.84293 l 15.70159,30.05822 a 20.762476,19.211949 0 0 1 2.04627,9.07365 z"
         fill="#53b726"
         id="path89"
         style="fill:#00aa88;stroke-width:1.28857" />
      <path
         d="m 616.27073,364.35325 a 72.64675,67.221543 0 0 1 -17.33322,-13.55484 80.384514,74.381457 0 0 1 -20.0338,-43.24492 c -1.28983,-13.72463 1.65326,-23.92629 8.74736,-30.3221 9.0174,-8.13017 21.2916,-6.94889 21.80969,-6.89427 l 0.54951,0.0575 8.31551,6.51077 -2.35311,2.57327 -7.44061,-5.8258 c -2.27753,-0.10526 -11.57587,-0.1281 -18.36815,6.01944 -6.25206,5.65868 -8.81937,14.94104 -7.63081,27.58922 a 76.767778,71.034816 0 0 0 19.03232,41.19809 70.537281,65.269608 0 0 0 16.46367,12.94116 z"
         fill="#53b726"
         id="path91"
         style="fill:#00aa88;stroke-width:1.28857" />
      <rect
         x="532.41693"
         y="443.48364"
         width="45.118305"
         height="1.1274076"
         transform="matrix(0.98241618,-0.18670419,0.21668616,0.97624132,0,0)"
         fill="#3f3d56"
         id="rect93"
         style="stroke-width:1.28887" />
      <rect
         x="620.74219"
         y="289.28372"
         width="1.2143459"
         height="65.325584"
         transform="matrix(0.99928746,-0.03774361,0.04407033,0.99902843,0,0)"
         fill="#3f3d56"
         id="rect95"
         style="stroke-width:1.28861" />
      <path
         d="m 673.72007,308.5256 c -0.34006,8.33203 -1.01395,24.73203 -1.01395,25.56915 0,0.88208 -13.4368,26.62542 -19.24152,37.70481 l 10.81983,-58.13313 a 13.84809,12.813924 0 0 1 8.99236,-9.88276 20.380994,18.858955 0 0 1 0.44328,4.74193 z"
         fill="#3f3d56"
         id="path97"
         style="stroke-width:1.28857" />
      <path
         d="m 607.24309,430.35674 a 10.688401,9.8901984 0 0 0 -3.4763,-14.82047 l 2.19893,-22.50923 -14.45683,-4.57272 -2.62287,31.82772 a 10.746417,9.9438832 0 0 0 18.35706,10.0747 z"
         fill="#ffb7b7"
         id="path99"
         style="stroke-width:1.28857" />
      <path
         d="m 609.1319,408.57622 -25.61665,-0.85955 1.08371,-114.31227 a 16.675645,15.430321 0 0 1 11.29707,-14.68655 15.149598,14.018238 0 0 1 9.52774,-0.007 16.677601,15.432131 0 0 1 11.28121,15.79433 z"
         fill="#cbcbcb"
         id="path101"
         style="stroke-width:1.28857" />
      <path
         d="M 894.57095,628.06956 H 376.71858 a 1.3591926,0.99383048 0 0 1 0,-1.98766 h 517.85237 a 1.3591926,0.99383048 0 0 1 0,1.98766 z"
         fill="#cbcbcb"
         id="path103"
         style="stroke-width:1.16224" />
    </g>
  </g>
</svg>
