<?xml version="1.0" encoding="UTF-8" standalone="no"?>
<!-- Created with Inkscape (http://www.inkscape.org/) -->

<svg
   width="297mm"
   height="210mm"
   viewBox="0 0 297 210"
   version="1.1"
   id="svg5"
   inkscape:version="1.1 (c68e22c387, 2021-05-23)"
   sodipodi:docname="aventuraMapColor.svg"
   xmlns:inkscape="http://www.inkscape.org/namespaces/inkscape"
   xmlns:sodipodi="http://sodipodi.sourceforge.net/DTD/sodipodi-0.dtd"
   xmlns="http://www.w3.org/2000/svg"
   xmlns:svg="http://www.w3.org/2000/svg">
  <sodipodi:namedview
     id="namedview7"
     pagecolor="#ffffff"
     bordercolor="#666666"
     borderopacity="1.0"
     inkscape:pageshadow="2"
     inkscape:pageopacity="0.0"
     inkscape:pagecheckerboard="0"
     inkscape:document-units="mm"
     showgrid="false"
     inkscape:zoom="0.65512531"
     inkscape:cx="570.11994"
     inkscape:cy="379.31674"
     inkscape:window-width="1920"
     inkscape:window-height="1017"
     inkscape:window-x="1358"
     inkscape:window-y="-8"
     inkscape:window-maximized="1"
     inkscape:current-layer="g162" />
  <defs
     id="defs2" />
  <g
     inkscape:label="Capa 1"
     inkscape:groupmode="layer"
     id="layer1">
    <g
       id="g162"
       transform="matrix(0.26458333,0,0,0.26458333,43.569976,4.7818917)">
      <path
         id="efdf5e1f-6b90-40c1-9274-afa2b16f39be"
         data-name="Path 482"
         d="m 418.84908,736.02442 c 0,0 -19.94736,-44.99445 39.89311,-78.73993 z"
         fill="#e6e6e6"
         style="fill:#bec8b7;stroke-width:1.49731" />
      <path
         id="af7fe47f-56e6-4bb6-aa0f-d6efaf86a160"
         data-name="Path 483"
         d="m 418.84908,736.02442 c 0,0 -6.31913,-42.68695 -55.23139,-42.32064 z"
         fill="#e6e6e6"
         style="fill:#bec8b7;stroke-width:1.76048" />
      <path
         id="a08d42bc-6ae2-46d7-9736-aba59e52cc48"
         data-name="Path 482"
         d="m 868.75367,736.84293 c 0,0 -26.35305,-59.44365 52.70406,-104.02598 z"
         fill="#e6e6e6"
         style="fill:#bec8b7;stroke-width:1.49731" />
      <path
         id="bafd7749-4c33-42a1-9524-e744b9f16454"
         data-name="Path 483"
         d="m 811.81221,734.94308 c 0,0 -8.03843,-42.36865 -70.25835,-42.00501"
         fill="#e6e6e6"
         style="fill:#bec8b7;stroke-width:1.49731" />
      <polygon
         points="467.821,170.069 484.46,178.908 483.215,179.569 466.576,170.731 "
         fill="#cbcbcb"
         id="polygon13"
         transform="matrix(1.246409,0,0,1.1492369,-84.583459,11.103616)" />
      <polygon
         points="484.095,170.069 485.34,170.731 468.701,179.569 467.457,178.908 "
         fill="#cbcbcb"
         id="polygon15"
         transform="matrix(1.246409,0,0,1.1492369,-84.583459,11.103616)" />
      <rect
         x="20.037844"
         y="369.97955"
         width="2.0602968"
         height="6.479569"
         transform="matrix(0.48578241,-0.87407977,0.90415662,0.42720112,0,0)"
         fill="#cbcbcb"
         id="rect17"
         style="stroke-width:1.19815" />
      <path
         d="m 466.72106,198.40441 -11.66085,-5.50943 1.00072,-1.80094 11.66083,5.50944 z m -23.32169,-11.01897 -11.66111,-5.50997 1.00071,-1.80094 11.66111,5.50998 z m -23.32196,-11.01946 -11.66083,-5.50943 1.0007,-1.80094 11.66084,5.50943 z m -23.3217,-11.01897 -11.6611,-5.50945 1.0007,-1.80093 11.66113,5.50944 z m -23.32194,-11.01898 -11.66085,-5.50943 1.00072,-1.80095 11.66082,5.50945 z"
         fill="#cbcbcb"
         id="path19"
         style="stroke-width:1.19683" />
      <rect
         x="20.03863"
         y="518.32593"
         width="2.0602968"
         height="6.479569"
         transform="matrix(0.48578241,-0.87407977,0.90415662,0.42720112,0,0)"
         fill="#cbcbcb"
         id="rect21"
         style="stroke-width:1.19815" />
      <path
         d="m 37.030095,274.18744 q 0,0.94796 -0.06656,1.88009 a 30.887895,28.479826 0 0 1 -2.894167,10.33957 c -0.01297,0.0278 -0.02802,0.0535 -0.04087,0.0793 -0.07743,0.15054 -0.156955,0.30109 -0.238584,0.44972 a 30.5217,28.14218 0 0 1 -1.643684,2.67454 31.039883,28.619963 0 0 1 -25.4744431,13.21815 l 0.3073031,16.2929 4.007205,-1.94549 0.715525,1.25407 -4.6926292,2.27832 0.5736717,30.25993 0.00615,0.40416 -3.0983364,0.63593 0.00615,-0.40614 0.9755018,-48.7717 a 30.978249,28.563134 0 0 1 -21.9161769,-8.7923 c -0.195461,-0.18617 -0.38888,-0.37839 -0.577973,-0.56857 l -0.02157,-0.0219 a 31.105705,28.680654 0 0 1 -5.659519,-8.07512 c 0.03016,0.0317 0.06231,0.0614 0.09249,0.093 a 31.078522,28.655589 0 0 1 14.7353589,-36.9244 c 0.1074407,-0.0494 0.2170616,-0.0972 0.3245034,-0.14659 A 31.10219,28.677413 0 0 1 32.74308,259.67353 c 0.189157,0.29319 0.371811,0.59236 0.547962,0.89348 a 30.908897,28.49919 0 0 1 3.738625,13.62037 z"
         fill="#e5e5e5"
         id="path23"
         style="fill:#dee3db;stroke-width:1.19683" />
      <ellipse
         cx="32.847549"
         cy="248.95155"
         fill="#e5e5e5"
         id="circle25"
         style="fill:#bec8b7;stroke-width:1.19683"
         rx="40.72543"
         ry="37.550407" />
      <path
         d="M 2.777194,223.87084 A 40.728606,37.553337 0 0 0 70.637802,263.6131 40.728905,37.553614 0 1 1 2.777194,223.87084 Z"
         opacity="0.2"
         style="isolation:isolate;stroke-width:1.19683"
         id="path27" />
      <polygon
         points="92.653,296.691 93.653,242.341 93.703,239.631 93.704,239.552 93.879,230.056 94.132,216.293 94.132,216.291 94.304,206.962 94.396,206.962 94.572,217.069 94.801,230.224 94.965,239.558 94.965,239.627 94.972,240.012 94.972,240.014 95.289,258.209 95.322,260.017 95.977,297.624 95.983,297.986 92.646,297.05 "
         fill="#3f3d56"
         id="polygon29"
         transform="matrix(1.246409,0,0,1.1492369,-84.583459,11.103616)" />
      <rect
         x="-124.88219"
         y="292.52402"
         width="7.4833255"
         height="1.8920727"
         transform="matrix(0.89960723,-0.43669993,0.49585498,0.86840534,0,0)"
         fill="#3f3d56"
         id="rect31"
         style="stroke-width:1.19819" />
      <path
         d="m 560.76908,127.42518 a 1037.3542,956.48034 0 0 0 -154.2446,2.18615 c -24.71828,2.06012 -49.8298,4.28532 -74.09138,9.25684 -19.54186,4.0044 -42.22234,10.7724 -54.39846,26.53624 a 27.783352,25.617318 0 0 0 -4.3379,22.42577 c 2.90323,8.98634 10.12533,16.46649 17.81678,22.32521 17.70232,13.48418 39.66636,21.33078 59.28596,32.04354 35.82179,19.55956 68.60625,45.92321 89.64921,79.41342 9.25973,14.73706 18.06782,34.33229 7.75715,50.57077 -10.10116,15.90853 -32.6506,21.38932 -51.03996,23.97393 -23.04928,3.2396 -46.79155,2.36091 -69.93701,0.54683 a 728.71007,671.89866 0 0 1 -75.59604,-10.20909 c -48.9525,-8.66691 -97.45937,-19.69167 -147.09221,-24.70514 a 425.99847,392.78694 0 0 0 -74.995971,-1.99956 c -22.5903404,1.40497 -45.374158,4.69957 -66.596105,12.21012 -16.353333,5.78755 -33.78516,14.5439 -42.618585,29.14693 -8.515028,14.07669 -5.193897,30.30982 4.077914,43.2975 11.155884,15.62685 28.551901,26.33521 46.638056,34.16191 20.5926704,8.91139 42.61846,14.68772 64.672419,19.60022 11.185143,2.49156 22.430793,4.74373 33.677472,6.98449 2.346217,0.46745 3.348704,-2.85541 0.994032,-3.32455 C 47.709968,497.34802 24.964483,492.81456 2.8478028,486.27336 -17.618805,480.22016 -38.56366,472.46601 -55.323985,459.75549 -68.883131,449.47266 -81.775075,434.45312 -80.974756,417.37636 -80.167967,400.16145 -64.503,388.1418 -49.1492,380.74346 -29.961245,371.49761 -8.1610416,366.99387 13.200601,364.64 a 378.82936,349.29522 0 0 1 73.650932,-0.92358 c 49.515717,3.47388 97.925057,13.87387 146.473497,22.94518 47.16372,8.81256 95.79957,16.97291 144.13324,14.71259 19.15755,-0.89588 39.68467,-3.42708 56.59985,-12.343 7.74469,-4.0822 14.72811,-9.83919 18.66419,-17.33115 a 42.096128,38.814246 0 0 0 3.21651,-22.80627 c -2.74288,-16.97431 -13.67718,-32.71376 -24.58716,-46.23398 a 242.32262,223.43075 0 0 0 -41.30561,-39.4512 325.81796,300.41666 0 0 0 -54.65419,-32.82824 c -10.26818,-4.98476 -20.68224,-9.77795 -30.46791,-15.55147 -9.38259,-5.53576 -18.63796,-12.19654 -24.36765,-21.18317 -4.95563,-7.77261 -5.86458,-16.64366 -0.70298,-24.52675 5.22065,-7.97324 14.21541,-13.53409 23.08541,-17.5977 21.37094,-9.79071 46.21683,-12.41143 69.59853,-15.09694 a 1029.4267,949.17094 0 0 1 151.37708,-6.95919 q 18.43977,0.39995 36.8548,1.40773 c 2.40378,0.13038 2.3956,-3.31777 0,-3.44772 z"
         id="path33"
         style="stroke-width:1.19683" />
      <path
         d="m 528.16022,16.909699 7.76442,-5.725889 c -6.03183,-0.6136 -8.51019,2.419569 -9.52448,4.820348 -4.71232,-1.804187 -9.84223,0.560287 -9.84223,0.560287 l 15.53516,5.200124 a 11.75578,10.839281 0 0 0 -3.93287,-4.85487 z"
         fill="#3f3d56"
         id="path35"
         style="stroke-width:1.19683" />
      <path
         d="m 490.47866,35.03691 7.76443,-5.725899 c -6.03185,-0.61359 -8.51021,2.419568 -9.5245,4.820348 -4.71232,-1.804176 -9.84223,0.560298 -9.84223,0.560298 l 15.53516,5.200125 a 11.755693,10.8392 0 0 0 -3.93286,-4.854872 z"
         fill="#3f3d56"
         id="path37"
         style="stroke-width:1.19683" />
      <path
         d="m 528.16022,63.738321 7.76442,-5.72589 c -6.03183,-0.6136 -8.51019,2.419569 -9.52448,4.820347 -4.71232,-1.804186 -9.84223,0.560288 -9.84223,0.560288 l 15.53516,5.200125 a 11.75578,10.839281 0 0 0 -3.93287,-4.85487 z"
         fill="#3f3d56"
         id="path39"
         style="stroke-width:1.19683" />
      <g
         id="e2dfab6d-8627-4cc0-b13e-69de57259a01"
         data-name="Group 27"
         transform="matrix(1.246409,0,0,1.1492369,-84.583459,11.103616)">
        <circle
           id="bedd3b2f-f695-46eb-9812-80ad4d1341b6"
           data-name="Ellipse 7"
           cx="398.21854"
           cy="34.412971"
           r="18.768471"
           fill="#ff6583"
           style="fill:#d35f5f" />
        <path
           id="f8d22fd6-a75d-4da9-80c1-fba8d7f50740"
           data-name="Path 65"
           d="m 692.32061,219.24825 h -79.63353 l 15.4306,-22.41441 1.11,-1.61523 20.10819,-29.20986 a 4.0685,4.0685 0 0 1 6.04372,-0.36091 3.63814,3.63814 0 0 1 0.28961,0.36091 z"
           transform="translate(-183.98585,-127)"
           fill="#53b726"
           style="fill:#00aa00" />
        <path
           id="efdddea5-7f44-48b8-bec9-83339a7f085f"
           data-name="Path 63"
           d="m 641.059,219.24736 h -92.0731 a 1.88476,1.88476 0 0 1 -0.34417,-0.0273 l 43.54727,-75.4242 a 3.04826,3.04826 0 0 1 5.307,0 l 29.224,50.61377 1.39957,2.42155 z"
           transform="translate(-183.98585,-127)"
           fill="#53b726" />
      </g>
      <path
         d="m 385.28105,315.92129 c 10.87763,5.01297 17.5001,11.63371 17.5001,18.89552 0,15.64342 -30.70059,28.32489 -68.57119,28.32489 -16.46507,0 -31.57059,-2.39909 -43.39108,-6.3945 12.55495,5.78608 30.77988,9.42931 51.07104,9.42931 37.87057,0 68.57119,-12.68146 68.57119,-28.32488 0,-8.84216 -9.81262,-16.73599 -25.18006,-21.93034 z"
         fill="#f1f1f1"
         id="path45"
         style="fill:#6f8a91;stroke-width:1.19683" />
      <path
         d="m 409.47683,326.66667 c 12.27411,5.65656 19.74684,13.12733 19.74684,21.32136 0,17.65176 -34.642,31.96133 -77.37447,31.96133 -18.57898,0 -35.62369,-2.7071 -48.96173,-7.21545 14.1668,6.52891 34.73149,10.63987 57.62767,10.63987 42.73247,0 77.37447,-14.30955 77.37447,-31.96131 -3e-5,-9.97734 -11.07243,-18.88454 -28.41278,-24.7458 z"
         fill="#f1f1f1"
         id="path47"
         style="fill:#374548;stroke-width:1.19683" />
      <path
         d="m 376.02133,320.65435 c 7.66357,3.5318 12.32928,8.19629 12.32928,13.31238 0,11.0212 -21.62938,19.95565 -48.3102,19.95565 a 90.740341,83.666076 0 0 1 -30.57012,-4.5051 c 8.84528,4.07646 21.68521,6.64321 35.98086,6.64321 26.68082,0 48.31019,-8.93443 48.31019,-19.95565 0,-6.22952 -6.91327,-11.79094 -17.74001,-15.45049 z"
         fill="#f1f1f1"
         id="path49"
         style="fill:#b7c4c8;stroke-width:1.19683" />
      <path
         d="m 268.34339,318.63113 c 0,0 1.68401,22.69591 49.95809,22.69591 48.27408,0 62.68662,-22.69591 62.68662,-22.69591 z"
         fill="#3f3d56"
         id="path51"
         style="stroke-width:1.19683" />
      <path
         d="m 336.86318,259.08292 a 33.88658,31.244728 0 0 0 -24.40967,-6.15646 34.004953,31.353871 0 0 1 -4.11758,61.63258 34.011895,31.360273 0 0 0 28.52729,-55.47612 z"
         fill="#3f3d56"
         id="path53"
         style="stroke-width:1.19683" />
      <rect
         x="317.75293"
         y="248.83049"
         width="3.2914169"
         height="72.238777"
         fill="#3f3d56"
         id="rect55"
         style="stroke-width:1.19683" />
      <path
         d="m 537.35418,195.15701 -0.0177,-0.0278 -0.0444,-1.76455 10.31137,-13.80383 -10.29908,12.48308 -0.0369,0.37298 -0.3525,-14.10917 8.90621,-14.31145 -8.93139,11.8328 0.0932,-29.23067 -5.4e-4,-0.0974 -0.002,0.0957 -0.59142,23.03771 -8.11711,-9.3579 8.09087,11.34256 -0.17733,12.62041 -7.46942,-12.31699 7.4421,14.17237 -0.0991,7.01759 -0.27267,19.44194 -0.0199,1.45276 q 1.03177,0.007 2.04266,-0.0317 l -0.46715,-18.67434 z"
         fill="#cbcbcb"
         id="path57"
         style="stroke-width:1.19683" />
      <path
         d="m 487.98295,201.22664 -0.0177,-0.0278 -0.0444,-1.76456 10.31139,-13.80385 -10.29908,12.4831 -0.037,0.37298 -0.35252,-14.10919 8.90622,-14.31144 -8.93143,11.83277 0.0933,-29.23068 -5.4e-4,-0.0974 -0.002,0.0957 -0.59141,23.03771 -8.1171,-9.3579 8.09086,11.34258 -0.17733,12.6204 -7.46943,-12.317 7.44211,14.17239 -0.0991,7.01757 -0.27268,19.44196 -0.0198,1.45275 q 1.03179,0.007 2.04267,-0.0317 l -0.46714,-18.67435 z"
         fill="#cbcbcb"
         id="path59"
         style="stroke-width:1.19683" />
      <path
         d="m 512.11998,182.00616 -0.0177,-0.0278 -0.0444,-1.76455 10.31139,-13.80386 -10.29906,12.4831 -0.0371,0.37299 -0.35249,-14.10918 8.90621,-14.31143 -8.93139,11.83279 0.0933,-29.23068 -5.5e-4,-0.0974 -0.002,0.0957 -0.59142,23.0377 -8.11711,-9.35791 8.09086,11.34259 -0.17733,12.62041 -7.46942,-12.31701 7.4421,14.17238 -0.0991,7.01757 -0.27268,19.44195 -0.0198,1.45276 q 1.03179,0.007 2.04265,-0.0317 l -0.46713,-18.67436 z"
         fill="#cbcbcb"
         id="path61"
         style="stroke-width:1.19683" />
      <ellipse
         cx="104.3595"
         cy="505.77783"
         fill="#53b726"
         id="circle63"
         style="fill:#55ffdd;stroke-width:1.19683"
         rx="13.165656"
         ry="12.13924" />
      <polygon
         points="705.62,629.052 686.952,593.062 701.385,587.7 715.399,625.419 "
         fill="#ffb7b7"
         id="polygon65"
         transform="matrix(1.5641286,0,0,1.4333552,-404.47325,-187.56761)" />
      <path
         d="m 723.91211,721.13792 -49.31933,16.79204 -0.23182,-0.57166 a 20.479733,18.767463 0 0 1 12.06338,-24.12757 l 10e-4,-4.4e-4 30.12266,-10.25596 z"
         fill="#2f2e41"
         id="path67"
         style="stroke-width:1.49731" />
      <polygon
         points="608.73,635.573 603.767,595.335 619.164,595.336 619.162,635.574 "
         fill="#ffb7b7"
         id="polygon69"
         transform="matrix(1.5641286,0,0,1.4333552,-404.47325,-187.56761)" />
      <path
         d="m 566.8067,737.92996 -52.61352,-0.001 v -0.60982 a 20.479746,18.767476 0 0 1 20.47864,-18.76654 h 10e-4 l 32.13453,10e-4 z"
         fill="#2f2e41"
         id="path71"
         style="stroke-width:1.49731" />
      <path
         d="m 638.6816,323.43009 -5.3238,-9.75737 -45.25233,20.73443 1.33094,8.53772 -8.6512,10.36719 c 0,0 -14.64046,7.31805 -11.97853,31.71155 l 2.6619,23.1738 3.32738,29.88198 -23.29163,73.79014 -11.97856,97.57382 -8.65121,78.66887 41.92492,-1.82951 38.59763,-128.06566 67.87851,137.82301 46.58326,-10.97706 -63.88563,-136.60333 -7.98572,-57.32462 c 0,0 5.3238,-30.49177 -19.96425,-51.22626 l 3.99285,-10.97705 v -13.52685 l 13.3095,-64.53219 z"
         fill="#2f2e41"
         id="path73"
         style="stroke-width:1.49731" />
      <rect
         x="-387.8602"
         y="748.55719"
         width="99.5382"
         height="1.5548052"
         transform="matrix(0.29416665,-0.95575414,0.96818231,0.25024592,0,0)"
         opacity="0.2"
         id="rect75"
         style="stroke-width:1.49809" />
      <rect
         x="572.13409"
         y="438.07938"
         width="65.216591"
         height="6.0983667"
         fill="#3f3d56"
         id="rect77"
         style="stroke-width:1.49731" />
      <ellipse
         cx="572.13409"
         cy="441.73837"
         rx="2.6618967"
         ry="6.0983667"
         fill="#3f3d56"
         id="ellipse79"
         style="stroke-width:1.49731" />
      <ellipse
         cx="374.62299"
         cy="520.39569"
         transform="matrix(0.89408872,-0.44788989,0.51229915,0.85880707,0,0)"
         fill="#ffb7b7"
         id="circle81"
         rx="34.816956"
         ry="33.216751"
         style="stroke-width:1.49933" />
      <ellipse
         cx="657.06824"
         cy="246.32732"
         fill="#2f2e41"
         id="circle83"
         rx="21.031616"
         ry="22.338371"
         style="stroke-width:1.08021" />
      <path
         d="m 687.37388,235.68123 a 27.138597,28.762949 0 1 1 -52.93715,11.7948 27.138882,28.763249 0 0 0 52.93715,-11.7948 z"
         fill="#2f2e41"
         id="path85"
         style="stroke-width:1.39229" />
      <path
         d="m 575.06079,264.56312 a 37.107812,34.005302 0 1 0 22.14337,-27.37651 c -6.19802,-4.58053 -13.88241,-3.16089 -20.12965,1.67335 -7.06469,5.46613 -9.16124,9.22106 -14.64026,18.21009 5.38746,0.6934 7.23891,6.79968 12.62654,7.49307 z"
         fill="#2f2e41"
         id="path87"
         style="stroke-width:1.49731" />
      <path
         d="m 702.07772,367.87371 c -0.39708,9.63492 -1.18394,28.5994 -1.18394,29.56742 0,1.02002 -15.68931,30.78887 -22.46711,43.60076 v 0.007 c -0.48225,0.90302 -0.91464,1.72169 -1.2975,2.44284 a 6.3010923,5.7742708 0 0 1 -5.79218,3.26145 l -29.62044,-0.48737 a 6.3129953,5.7851786 0 0 1 -6.20345,-5.63928 l -3.3039,-119.41974 a 3.2217141,2.952353 0 0 1 3.21873,-3.02751 h 38.19899 a 8.5883178,7.870266 0 0 1 7.72769,4.44384 l 18.33377,34.75846 a 24.243058,22.216143 0 0 1 2.38931,10.49252 z"
         fill="#53b726"
         id="path89"
         style="fill:#00aa88;stroke-width:1.49731" />
      <path
         d="M 634.99768,432.4312 A 84.825108,77.733052 0 0 1 614.75875,416.75677 93.860016,86.012569 0 0 1 591.36653,366.7496 c -1.50605,-15.87078 1.93041,-27.66767 10.21373,-35.06361 10.52908,-9.40149 24.8609,-8.03549 25.46584,-7.97234 l 0.64162,0.0665 9.70951,7.52887 -2.74758,2.97565 -8.68793,-6.73679 c -2.65934,-0.12172 -13.51643,-0.14812 -21.44735,6.96071 -7.30015,6.54353 -10.29783,17.27739 -8.91002,31.90338 a 89.636976,82.14261 0 0 0 22.22285,47.64028 82.362011,75.47589 0 0 0 19.22361,14.96477 z"
         fill="#53b726"
         id="path91"
         style="fill:#00aa88;stroke-width:1.49731" />
      <rect
         x="536.44751"
         y="508.3316"
         width="52.664211"
         height="1.3043007"
         transform="matrix(0.98274519,-0.18496454,0.21869689,0.97579284,0,0)"
         fill="#3f3d56"
         id="rect93"
         style="stroke-width:1.49775" />
      <rect
         x="639.79639"
         y="342.46011"
         width="1.417897"
         height="75.542053"
         transform="matrix(0.99930113,-0.03737993,0.04449887,0.99900943,0,0)"
         fill="#3f3d56"
         id="rect95"
         style="stroke-width:1.49736" />
      <path
         d="m 702.07772,367.87371 c -0.39708,9.63492 -1.18394,28.5994 -1.18394,29.56742 0,1.02002 -15.68931,30.78887 -22.46711,43.60076 l 12.63363,-67.22347 a 16.169556,14.817652 0 0 1 10.49982,-11.42814 23.797624,21.807951 0 0 1 0.5176,5.48343 z"
         fill="#3f3d56"
         id="path97"
         style="stroke-width:1.49731" />
      <path
         d="m 624.45667,508.75573 a 12.480183,11.43674 0 0 0 -4.05907,-17.13797 l 2.56756,-26.02902 -16.88034,-5.28776 -3.06257,36.80466 a 12.547925,11.498819 0 0 0 21.43441,11.65009 z"
         fill="#ffb7b7"
         id="path99"
         style="stroke-width:1.49731" />
      <path
         d="M 626.66211,483.56935 596.75114,482.5754 598.0165,350.388 a 19.471116,17.843178 0 0 1 13.1909,-16.98311 17.689246,16.210286 0 0 1 11.12495,-0.008 19.473401,17.84527 0 0 1 13.17238,18.26411 z"
         fill="#cbcbcb"
         id="path101"
         style="stroke-width:1.49731" />
      <path
         d="M 959.95159,737.38513 H 355.28748 a 1.5870493,1.14924 0 0 1 0,-2.29848 h 604.66411 a 1.5870493,1.14924 0 0 1 0,2.29848 z"
         fill="#cbcbcb"
         id="path103"
         style="stroke-width:1.35051" />
    </g>
  </g>
</svg>
