<?xml version="1.0" encoding="UTF-8" standalone="no"?>
<!-- Created with Inkscape (http://www.inkscape.org/) -->

<svg
   width="297mm"
   height="210mm"
   viewBox="0 0 297 210"
   version="1.1"
   id="svg5"
   inkscape:version="1.1 (c68e22c387, 2021-05-23)"
   sodipodi:docname="gitSVGColor.svg"
   xmlns:inkscape="http://www.inkscape.org/namespaces/inkscape"
   xmlns:sodipodi="http://sodipodi.sourceforge.net/DTD/sodipodi-0.dtd"
   xmlns="http://www.w3.org/2000/svg"
   xmlns:svg="http://www.w3.org/2000/svg">
  <sodipodi:namedview
     id="namedview7"
     pagecolor="#ffffff"
     bordercolor="#666666"
     borderopacity="1.0"
     inkscape:pageshadow="2"
     inkscape:pageopacity="0.0"
     inkscape:pagecheckerboard="0"
     inkscape:document-units="mm"
     showgrid="false"
     inkscape:zoom="0.97005861"
     inkscape:cx="469.55926"
     inkscape:cy="418.01598"
     inkscape:window-width="1366"
     inkscape:window-height="705"
     inkscape:window-x="-8"
     inkscape:window-y="-8"
     inkscape:window-maximized="1"
     inkscape:current-layer="g102" />
  <defs
     id="defs2" />
  <g
     inkscape:label="Capa 1"
     inkscape:groupmode="layer"
     id="layer1">
    <g
       id="g102"
       transform="matrix(0.28117751,0,0,0.28582988,8.2960832,24.22899)">
      <g
         id="f9b32178-6d95-472d-b482-6662972666de"
         data-name="Group 100"
         style="fill:#808080"
         transform="matrix(1.2463632,0,0,1.1635886,-141.25666,-83.801531)">
        <path
           id="f4b94a19-cbe0-459a-95a6-6ea3b3d72055"
           data-name="Path 1465"
           d="m 675.14672,628.10046 a 11.49,11.49 0 1 0 11.49,11.49 v 0 a 11.49,11.49 0 0 0 -11.49,-11.49 z m 0,18.561 a 7.071,7.071 0 1 1 7.071,-7.071 v 6e-5 a 7.071,7.071 0 0 1 -7.071,7.07091 z"
           transform="translate(-113.2693,-156.48744)"
           fill="#e4e4e4"
           style="fill:#808080" />
        <path
           id="abc0e0b3-f22e-4bee-9929-c6879640924e"
           data-name="Path 1467"
           d="m 630.95367,619.26144 h 44.193 v 43.739 a 5.757,5.757 0 0 1 -5.757,5.757 h -32.679 a 5.757,5.757 0 0 1 -5.757,-5.757 z"
           transform="translate(-113.2693,-156.48744)"
           fill="#e4e4e4"
           style="fill:#808080" />
      </g>
      <path
         id="e24b6f19-a0a0-4e73-9cfc-bbb7635ad236"
         data-name="Path 944"
         d="m 778.40266,669.75845 h -664.237 a 1.006,1.006 0 0 1 0,-2 h 664.237 a 1.006,1.006 0 0 1 0,2 z"
         transform="translate(-113.2693,-156.48744)"
         fill="#cacaca" />
      <polygon
         points="161.695,540.208 167.759,510.228 89.41,494.381 85.302,514.694 "
         fill="#ffb6b6"
         id="polygon13"
         transform="translate(22.583601)" />
      <path
         d="m 115.91,494.24422 -8.0912,40.00293 -3.3e-4,0.002 a 26.01065,26.01065 0 0 1 -30.649781,20.3355 l -0.82841,-0.1676 13.247839,-65.49629 z"
         fill="#2f2e41"
         id="path15" />
      <circle
         id="fd4e5ab9-ffc8-4bbb-9267-3af70c31dae1"
         data-name="Ellipse 276"
         cx="206.09096"
         cy="162.713"
         r="51.870998"
         fill="#feb8b8" />
      <path
         id="a8c9bbe2-1461-49cf-8211-f8d251166dc5"
         data-name="Path 1461"
         d="m 254.53893,117.96299 a 59.90714,59.90714 0 0 0 -34.08105,-26.052 l -6.368,4.647 v -6.034 a 55.143,55.143 0 0 0 -10.3,-0.6 l -5.494,4.971 v -4.558 a 59.33506,59.33506 0 0 0 -40.932,24.347 c -11.931,17.2 -13.945,41.129 -2.21,58.467 3.221,-9.9 7.131,-19.189 10.353,-29.088 a 29.29917,29.29917 0 0 0 7.633,0.037 l 3.919,-9.145 1.095,8.758 c 12.148,-1.058 30.166,-3.382 41.682,-5.511 l -1.12,-6.719 6.7,5.583 c 3.528,-0.812 5.623,-1.549 5.45,-2.112 8.565,13.808 19.047,22.627 27.611,36.435 3.25303,-19.46998 6.99705,-35.65901 -3.93795,-53.426 z"
         fill="#2f2e41" />
      <ellipse
         id="f6be96d1-713f-4c17-812c-ecd79c56fe95"
         data-name="Ellipse 260"
         cx="217.32204"
         cy="464.78699"
         rx="133.56"
         ry="37.359001"
         fill="#2f2e41" />
      <path
         d="m 310.12284,296.10104 c -1.78369,-10.731 -3.62354,-21.668 -8.61084,-31.335 -3.27784,-6.332 -8.481,-12.366 -15.49512,-13.618 a 14.98964,14.98964 0 0 1 -4.03467,-0.934 c -2.05517,-0.99 -29.67334,-16.756 -34.063,-19.502 -3.769,-2.35736 -9.71875,-6.72223 -12.71875,-6.72223 -3.01806,-0.0663 -14.59082,2.62708 -59.76025,-0.90381 a 163.14109,163.14109 0 0 0 -22.01025,10.82172 c -0.14551,-0.0959 -46.88187,25.00134 -48.63773,24.9353 -3.32521,-0.14 -6.416007,1.989 -8.322274,4.67005 -1.905767,2.681 -2.799804,6 -3.735844,9.209 10.208008,22.733 19.547878,45.495 29.756878,68.228 a 5.82135,5.82135 0 0 1 0.73828,2.8 6.83358,6.83358 0 0 1 -1.27,2.8 c -5.00636,8.042 -4.84718,18.157 -4.3003,27.609 0.54736,9.452 1.22412,19.436 -3.00001,27.908 -1.14893,2.326 -2.64307,4.455 -3.73584,6.781 -2.55908,5.268 -3.4839,22.117 -1.98926,27.777 l 187.26662,5.3648 c -4.02637,-11.06803 13.92236,-145.88883 13.92236,-145.88883 z"
         fill="#53b726"
         id="path20"
         style="fill:#ff9955" />
      <path
         id="eb41f72e-aba6-4a16-bf55-c7027d2f1a4b"
         data-name="Path 1421"
         d="m 76.546979,341.95797 a 33.06266,33.06266 0 0 0 -0.112,8.154 l 2.684007,38.546 c 0.251997,3.633 0.499997,7.257 0.840997,10.881 0.644,7.033 1.605997,14.01 2.799997,20.977 a 3.736,3.736 0 0 0 3.829004,3.633 c 11.814999,2.5 24.022016,2.4 36.080036,1.719 18.4,-1.027 65.474,-2.97 68.35,-6.706 2.876,-3.736 1.2,-9.779 -2.55,-12.8 -3.75,-3.021 -65.871,-10.386 -65.871,-10.386 0.607,-4.81 2.438,-9.34 4.175,-13.907 3.12,-8.1 6.034,-16.466 6.09,-25.143 0.056,-8.677 -3.213,-17.8 -10.321,-22.771 -5.84701,-4.081 -13.37502,-4.838 -20.50003,-4.67 -5.184004,0.149 -14.141009,-1.093 -18.876003,0.934 -3.746994,1.65003 -5.919008,7.87006 -6.619008,11.539 z"
         fill="#fbbebe" />
      <path
         id="a363f2f7-2464-40a1-ad01-344825aa0b75"
         data-name="Path 1423"
         d="m 272.81561,429.09103 c 3.11,-1.186 6.538,-0.757 9.872,-0.308 10.732,1.466 21.622,2.97 31.569,7.257 4.67,2 9.116,4.67 12.273,8.6 2.8,3.54 4.436,7.874 5.987,12.142 l 3.587,9.826 a 47.30032,47.30032 0 0 1 3.129,11.516 c 1.121,11.759 -6.921,22.845 -17.036,28.954 -10.115,6.109 -22.023,8.284 -33.624,10.563 -11.601,2.279 -23.247,4.8 -34.8,7.472 a 140.08632,140.08632 0 0 1 -16.373,3.222 c -12.366,1.4 -25.292,-0.663 -37.042,3.428 -4.67,1.635 -9.256,4.063 -14.1,5.193 a 87.74454,87.74454 0 0 1 -9.751,1.485 l -22.238,2.54 a 121.31294,121.31294 0 0 1 -13.636,1.046 c -9.713,0 -19.268,-2.3 -28.7,-4.6 a 7.25771,7.25771 0 0 1 -2.8,-1.13 c -1.494,-1.177 -1.821,-3.26 -2.036,-5.146 q -1.429,-12.525 -2.5,-25.077 c -0.224,-2.718 -0.392,-5.66 1.093,-7.948 1.868,-2.8 5.511,-3.68 8.836,-4.222 a 230.57994,230.57994 0 0 1 42.665,-2.961 c 5.426,-5.426 14.374,-5.454 21.482,-8.406 a 63.89712,63.89712 0 0 0 7.575,-4.119 99.00057,99.00057 0 0 1 41.59,-13.141 38.71437,38.71437 0 0 0 8.509,-1.214 c 5.5,-1.709 10.517,-6.361 16.167,-5.221 0.7,-1.933 1.186,-4.521 2.8,-5.847 0.8,-0.682 1.793,-1.139 2.531,-1.868 1.56,-1.578 1.7,-4.063 1.466,-6.267 -0.234,-2.204 -0.757,-4.464 -0.187,-6.613 a 9.14077,9.14077 0 0 1 1.037,-2.307 c 2.792,-4.83203 7.02302,-7.31604 12.655,-6.849 z"
         fill="#2f2e41" />
      <path
         id="b53ad979-99f4-4c6e-a0f8-957060c42096"
         data-name="Path 1430"
         d="m 92.193985,273.41399 a 9.66706,9.66706 0 0 0 -2.072997,3.316 156.78038,156.78038 0 0 0 -13.169009,53.816 5.38,5.38 0 0 1 -0.607,2.606 11.40276,11.40276 0 0 1 -1.372997,1.485 5.156,5.156 0 0 0 0.616617,7.26557 q 0.12733,0.10739 0.26138,0.20642 c 1.541,-2.9 5.230004,-3.848 8.509008,-4.1 15.699993,-1.242 31.036023,6.062 46.783033,5.511 -1.111,-3.839 -2.709,-7.528 -3.615,-11.413 -4.007,-17.251 5.987,-36.033 -0.14,-52.649 -1.224,-3.325 -3.269,-6.594 -6.491,-8.051 a 17.29051,17.29051 0 0 0 -4.15601,-1.1 c -3.97901,-0.719 -11.90002,-3.792 -15.74703,-2.559 -1.419997,0.458 -1.979997,1.793 -3.156994,2.6 -1.788007,1.14203 -4.159994,1.56201 -5.642001,3.06601 z"
         fill="#53b726"
         style="fill:#ffb380" />
      <path
         id="a1197c30-bfd4-4098-bcf9-2468e7a33bf1"
         data-name="Path 1421"
         d="m 310.23491,330.41897 c -4.735,-2.027 -13.692,-0.785 -18.876,-0.934 -7.125,-0.168 -14.653,0.589 -20.5,4.67 -7.108,4.971 -10.377,14.094 -10.321,22.771 0.056,8.677 2.97,17.043 6.09,25.143 1.737,4.567 3.568,9.097 4.175,13.907 0,0 -62.121,7.365 -65.871,10.386 -3.75,3.021 -5.426,9.064 -2.55,12.8 2.876,3.736 92.615,7.487 104.43,4.987 a 3.736,3.736 0 0 0 3.829,-3.633 c 1.194,-6.967 2.156,-13.944 2.8,-20.977 0.341,-3.624 0.589,-7.248 0.841,-10.881 l 2.684,-38.546 a 33.06364,33.06364 0 0 0 -0.112,-8.154 c -0.69998,-3.66894 -2.87199,-9.88897 -6.619,-11.539 z"
         fill="#fbbebe" />
      <path
         id="ebe46053-6aac-4aa7-8615-21a6fa79538d"
         data-name="Path 1430"
         d="m 295.56491,270.34798 c -1.177,-0.807 -1.737,-2.142 -3.157,-2.6 -3.847,-1.233 -11.768,1.84 -15.747,2.559 a 17.29056,17.29056 0 0 0 -4.156,1.1 c -3.222,1.457 -5.267,4.726 -6.491,8.051 -6.127,16.616 3.867,35.398 -0.14,52.649 -0.906,3.885 -2.504,7.574 -3.615,11.413 15.747,0.551 31.083,-6.753 46.783,-5.511 3.279,0.252 6.968,1.2 8.509,4.1 q 0.134,-0.099 0.26138,-0.20642 a 5.156,5.156 0 0 0 0.61663,-7.26557 11.40137,11.40137 0 0 1 -1.373,-1.485 5.37993,5.37993 0 0 1 -0.607,-2.606 156.78014,156.78014 0 0 0 -13.169,-53.816 9.66706,9.66706 0 0 0 -2.073,-3.316 c -1.482,-1.504 -3.854,-1.92398 -5.64201,-3.06601 z"
         fill="#53b726"
         style="fill:#ffb380" />
      <polygon
         points="215.975,543.166 220.005,512.846 299.243,523.378 296.513,543.921 "
         fill="#ffb6b6"
         id="polygon27"
         transform="translate(3.763933,-3.7026686)" />
      <path
         d="m 329.26299,515.23096 -8.804,66.24017 -0.83783,-0.11132 a 26.01064,26.01064 0 0 1 -22.35645,-29.20839 l 2.2e-4,-0.002 5.3773,-40.45722 z"
         fill="#2f2e41"
         id="path29" />
      <path
         id="a0b0f7ea-4ed9-4447-aa64-e2335b2c3196"
         data-name="Path 1427"
         d="m 115.4153,439.48697 c 0,0.934 -1.466,0 -1.6,-1 -1.027,-7.556 -7.024,-13.786 -14.010007,-16.812 -6.986001,-3.026 -14.944006,-3.185 -22.509004,-2.466 -11.441002,1.083 -24.283994,5.464 -28.467995,16.158 -0.99,2.5 -10.264005,24.76 -9.359005,29.766 2.438004,13.356 11.572002,24.779 22.640004,32.69 11.068002,7.911 24.000001,12.637 36.9,16.9 a 639.94948,639.94948 0 0 0 104.607007,24.984 c 5.753,0.869 11.563,1.672 17.073,3.521 4.931,1.653 9.545,4.128 14.365,6.071 11.208,4.5 23.266,6.108 35.211,7.687 2.036,0.262 4.371,0.448 5.875,-0.934 1.943,-1.8 1.3,-4.941 0.747,-7.528 a 40.488,40.488 0 0 1 4.773,-28.729 c 2,-3.362 4.6,-6.809 4.222,-10.7 -0.448,-4.539 -4.969,-7.752 -9.471,-8.481 -4.502,-0.729 -9.078,0.346 -13.6,0.934 a 7.285,7.285 0 0 1 -4.623,-0.458 9.23483,9.23483 0 0 1 -1.812,-1.606 20.482,20.482 0 0 0 -23.854,-3.334 c -1.672,0.934 -4.2,-1.149 -5.94,-1.933 l -19.642,-8.892 c -22.565,-10.208 -45.242,-20.464 -69.115,-26.927 a 14.51449,14.51449 0 0 1 -5.324,-2.214 c -1.186,-0.934 -2.036,-2.2 -3.129,-3.241 -2.382,-2.251 -5.7,-3.148 -8.555,-4.745 -2.855,-1.597 -6.05601,-5.50799 -5.402,-8.711 z"
         fill="#2f2e41" />
      <circle
         cx="183.20052"
         cy="411.98984"
         r="14"
         fill="#fbbebe"
         id="circle32" />
      <circle
         cx="214.20052"
         cy="411.98984"
         r="14"
         fill="#fbbebe"
         id="circle34" />
      <path
         d="M 300.61903,443.53697 H 108.28014 a 8.4798,8.4798 0 0 1 -8.470227,-8.46972 V 318.38072 a 8.4798,8.4798 0 0 1 8.470227,-8.46972 h 192.33889 a 8.4798,8.4798 0 0 1 8.47021,8.46972 v 116.68653 a 8.4798,8.4798 0 0 1 -8.47021,8.46972 z"
         fill="#3f3d56"
         id="path36" />
      <circle
         id="e793da3b-cee2-4a15-ae11-6dab45a6c728"
         data-name="Ellipse 263"
         cx="203.98306"
         cy="376.724"
         r="10.971591"
         fill="#ffffff" />
      <path
         d="M 820.98018,288.20809 H 571.08736 a 5.00573,5.00573 0 0 1 -5,-5 V 236.108 h 2 v 47.10009 a 3.00328,3.00328 0 0 0 3,3 h 249.89282 a 3.00328,3.00328 0 0 0 3,-3 V 235.7789 h 2 v 47.42919 a 5.00573,5.00573 0 0 1 -5,5 z"
         fill="#3f3d56"
         id="path39" />
      <rect
         x="324.3479"
         y="235.10815"
         width="587.21997"
         height="2"
         fill="#3f3d56"
         id="rect41" />
      <circle
         id="a67a4451-c7cc-402c-b29d-5a705f3c9418"
         data-name="Ellipse 264"
         cx="324.39044"
         cy="235.95201"
         r="17.202"
         fill="#53b726"
         style="fill:#ff6600" />
      <circle
         id="abdb3fbf-f68e-433e-a33f-153626b38c76"
         data-name="Ellipse 266"
         cx="499.19543"
         cy="235.95201"
         r="17.202"
         fill="#53b726"
         style="fill:#ff7f2a" />
      <circle
         id="ac293633-0933-4e21-a8aa-bc27ca4fbccc"
         data-name="Ellipse 268"
         cx="617.82745"
         cy="286.51328"
         r="17.202"
         fill="#3f3d56"
         style="fill:#000080" />
      <circle
         id="a0cd768d-b738-4d4b-9ab3-78ab535c7573"
         data-name="Ellipse 269"
         cx="708.0144"
         cy="286.51328"
         r="17.202"
         fill="#cccccc"
         style="fill:#00ff00" />
      <circle
         id="b9eb3d2e-31e0-4fe2-be5c-79abb86bc227"
         data-name="Ellipse 270"
         cx="664.3114"
         cy="235.95201"
         r="17.202"
         fill="#53b726"
         style="fill:#ff6600" />
      <circle
         id="aa04baac-fce0-420a-b86a-4a97f3079928"
         data-name="Ellipse 271"
         cx="909.21045"
         cy="235.95201"
         r="17.202"
         fill="#53b726"
         style="fill:#ff6600" />
      <circle
         id="e92cf92c-058e-415c-ba96-766a57ee18d9"
         data-name="Ellipse 272"
         cx="824.98041"
         cy="235.95201"
         r="17.202"
         fill="#53b726"
         style="fill:#ff7f2a" />
      <rect
         id="ac5bf8cc-574d-4509-9338-881c836fd832"
         data-name="Rectangle 207"
         x="601.49048"
         width="31.90646"
         height="21.98984"
         fill="#3f3d56"
         y="77.75602"
         style="fill:#00ff00" />
      <rect
         id="ad5a043d-52f1-4931-b771-e4991ef7f7f7"
         data-name="Rectangle 208"
         x="308.56317"
         width="31.90646"
         height="21.98984"
         fill="#53b726"
         y="77.75602"
         style="fill:#ff6600" />
      <rect
         id="e5d95e83-bdd9-4322-95a9-5a9c4b449a8f"
         data-name="Rectangle 209"
         x="416.63589"
         width="31.90646"
         height="21.98984"
         fill="#cccccc"
         y="77.75602"
         style="fill:#000080" />
      <path
         d="m 377.73287,237.108 a 1.00005,1.00005 0 0 1 -1,-1 v -49.36231 a 5.00573,5.00573 0 0 1 5,-5 h 48.6748 a 1,1 0 0 1 0,2 h -48.6748 a 3.00328,3.00328 0 0 0 -3,3 V 236.108 a 1.00006,1.00006 0 0 1 -1,1 z"
         fill="#3f3d56"
         id="path53" />
      <circle
         id="b0a7c1c1-8f27-441f-a84a-e44462cc473e"
         data-name="Ellipse 265"
         cx="432.69543"
         cy="182.37198"
         r="17.202"
         fill="#e6e6e6"
         style="fill:#de8787" />
      <path
         d="m 762.73287,236.108 h -2 v -49.36231 a 5.00573,5.00573 0 0 1 5,-5 h 48.6748 v 2 h -48.6748 a 3.00328,3.00328 0 0 0 -3,3 z"
         fill="#3f3d56"
         id="path56" />
      <circle
         id="b3140cf1-cdb8-48ff-81af-ce41ed4f5739"
         data-name="Ellipse 265"
         cx="816.69543"
         cy="182.37198"
         r="17.202"
         fill="#e6e6e6"
         style="fill:#de8787" />
    </g>
  </g>
</svg>
