<?xml version="1.0" encoding="UTF-8" standalone="no"?>
<!-- Created with Inkscape (http://www.inkscape.org/) -->

<svg
   width="210mm"
   height="297mm"
   viewBox="0 0 210 297"
   version="1.1"
   id="svg5"
   inkscape:version="1.1 (c68e22c387, 2021-05-23)"
   sodipodi:docname="seguridadOnColor.svg"
   xmlns:inkscape="http://www.inkscape.org/namespaces/inkscape"
   xmlns:sodipodi="http://sodipodi.sourceforge.net/DTD/sodipodi-0.dtd"
   xmlns="http://www.w3.org/2000/svg"
   xmlns:svg="http://www.w3.org/2000/svg">
  <sodipodi:namedview
     id="namedview7"
     pagecolor="#ffffff"
     bordercolor="#666666"
     borderopacity="1.0"
     inkscape:pageshadow="2"
     inkscape:pageopacity="0.0"
     inkscape:pagecheckerboard="0"
     inkscape:document-units="mm"
     showgrid="false"
     inkscape:zoom="0.46324355"
     inkscape:cx="195.3616"
     inkscape:cy="650.84554"
     inkscape:window-width="1366"
     inkscape:window-height="705"
     inkscape:window-x="-8"
     inkscape:window-y="-8"
     inkscape:window-maximized="1"
     inkscape:current-layer="g77" />
  <defs
     id="defs2" />
  <g
     inkscape:label="Capa 1"
     inkscape:groupmode="layer"
     id="layer1">
    <g
       id="g77"
       transform="matrix(0.26458333,0,0,0.26458333,-18.684375,72.955129)">
      <path
         d="m 805.86961,644.94396 c 8.34381,15.74434 1.26844,68.9201 1.26844,68.9201 0,0 -46.3319,-20.93632 -54.67416,-36.67411 A 30.67817,32.74955 0 0 1 805.86961,644.944 Z"
         fill="#f1f1f1"
         id="path9"
         style="fill:#93ac9d;stroke-width:1.20005" />
      <path
         d="m 806.1792,712.78659 -0.98428,0.22136 c -9.48017,-48.08104 -42.58597,-80.68612 -42.91924,-81.00982 l 0.67683,-0.79433 c 0.33562,0.3258 33.67759,33.15263 43.22669,81.58279 z"
         fill="#ffffff"
         id="path11"
         style="stroke-width:1.20005" />
      <path
         d="m 881.68057,662.87137 c -11.32192,21.92516 -75.15479,51.62707 -75.15479,51.62707 0,0 -10.52393,-73.47998 0.79186,-95.39842 a 42.45904,45.325861 0 1 1 74.36293,43.77135 z"
         fill="#f1f1f1"
         id="path13"
         style="fill:#93ac9d;stroke-width:1.20005" />
      <path
         d="m 807.13805,713.86406 -0.95885,-1.07747 c 8.55853,-8.67674 15.94179,-17.98806 22.29223,-27.40509 27.92329,-41.40735 35.87765,-84.85847 35.97168,-85.39149 l 1.36814,0.27476 c -0.11592,0.6587 -12.14685,66.43022 -58.6732,113.59929 z"
         fill="#ffffff"
         id="path15"
         sodipodi:nodetypes="ccsccc"
         style="stroke-width:1.20005" />
      <path
         d="M 842.19874,716.98303 H 399.67792 a 1.1614728,1.239895 0 0 1 0,-2.47979 h 442.52082 a 1.1614728,1.239895 0 0 1 0,2.47979 z"
         fill="#cacaca"
         id="path25"
         style="stroke-width:1.20005" />
      <polygon
         points="547.206,568.237 562.671,568.236 570.029,508.583 547.203,508.584 "
         fill="#ffb8b8"
         id="polygon27"
         transform="matrix(1.161472,0,0,1.2398942,2.3914747,-7.784333)" />
      <path
         d="m 633.37342,690.50866 35.37567,-10e-4 h 10e-4 a 22.545334,24.067588 0 0 1 22.54418,24.06592 v 0.78207 l -57.92018,0.002 z"
         fill="#2f2e41"
         id="path29"
         style="stroke-width:1.20005" />
      <polygon
         points="599.206,568.237 614.671,568.236 622.029,508.583 599.203,508.584 "
         fill="#ffb8b8"
         id="polygon31"
         transform="matrix(1.161472,0,0,1.2398942,2.3914747,-7.784333)" />
      <path
         d="m 693.76996,690.50866 35.37568,-10e-4 h 0.001 a 22.545334,24.067588 0 0 1 22.54417,24.06592 v 0.78207 l -57.92018,0.002 z"
         fill="#2f2e41"
         id="path33"
         style="stroke-width:1.20005" />
      <polygon
         points="545.213,546.139 524.393,425.597 517.817,343.408 571.514,358.75 575.224,548 "
         fill="#2f2e41"
         id="polygon35"
         transform="matrix(1.161472,0,0,1.2398942,2.3914747,-7.784333)" />
      <path
         d="m 726.00991,397.625 4.8847,277.7724 -40.65151,-1.23991 -8.78073,-165.11702 -15.2735,-59.78383 -62.36664,-31.25073 10.18233,-74.72992 91.64071,-1.35871 z"
         fill="#2f2e41"
         id="path37"
         style="stroke-width:1.20005" />
      <ellipse
         cx="655.92352"
         cy="115.70156"
         fill="#ffb8b8"
         id="circle39"
         rx="31.17189"
         ry="33.276608"
         style="stroke-width:1.20005" />
      <polygon
         points="589.047,143.966 600.006,174.649 591.239,294.095 539.734,295.192 533.16,158.211 546.933,140.995 584.936,137.738 "
         fill="#cccccc"
         id="polygon41"
         transform="matrix(1.161472,0,0,1.2398942,2.3914747,-7.784333)" />
      <path
         d="m 597.4583,192.45734 -10.18232,-1.35872 c 0,0 -2.5456,1.35872 -3.81834,10.86979 -1.27275,9.51107 -16.54624,93.75212 -16.54624,93.75212 l 20.36458,103.26317 22.91014,-32.60942 -14.00058,-57.06645 14.00066,-57.06651 z"
         fill="#2f2e41"
         id="path43"
         style="stroke-width:1.20005" />
      <polygon
         points="616.443,293 620.826,265.604 618.635,241.496 610.964,227.249 624.114,160.404 630.689,160.404 647.127,249.166 631.785,318.204 "
         fill="#2f2e41"
         id="polygon45"
         transform="matrix(1.161472,0,0,1.2398942,2.3914747,-7.784333)" />
      <path
         d="m 674.34333,115.70155 -5.66762,-1.51259 c 0,0 -4.25069,-25.713744 -14.16909,-22.6886 -9.91838,3.025144 -35.42256,6.050312 -35.42256,-6.0503 0,-12.100612 24.08739,-22.688601 38.25637,-21.176029 14.16899,1.512572 32.26507,6.530523 36.83949,28.738864 7.33305,35.601085 -15.12977,44.593395 -15.12977,44.593395 l 0.37382,-1.29623 a 18.911494,20.188392 0 0 0 -5.08065,-20.60851 z"
         fill="#2f2e41"
         id="path47"
         style="stroke-width:1.20005" />
      <path
         d="m 588.54879,191.09865 40.72924,-17.66343 9.5459,-7.47299 28.63776,135.19321 13.36423,-139.26944 52.82066,29.21262 -17.819,92.39333 -2.54559,35.32688 7.63674,28.53324 c 0,0 26.72849,20.38089 17.81901,42.12044 -8.9095,21.73955 -19.09183,23.09836 -19.09183,23.09836 0,0 -43.27482,-43.47922 -45.82032,-54.34905 -2.54551,-10.86984 -6.3639,-29.89196 -6.3639,-29.89196 0,0 -21.63742,86.95846 -47.09306,85.59969 -25.45563,-1.35875 -25.45574,-29.89196 -25.45574,-29.89196 l 6.36393,-29.89196 10.18231,-31.25069 -5.09116,-51.63159 z"
         fill="#2f2e41"
         id="path49"
         style="stroke-width:1.20005" />
      <path
         d="m 368.19016,552.41911 a 92.984539,101.78494 0 0 1 -23.05094,-3.26399 l -1.4839,-0.44944 -1.37652,-0.75491 C 292.51278,520.6375 250.52789,484.56051 217.49014,440.72142 A 370.83305,405.93006 0 0 1 154.48292,318.25098 430.62003,471.37552 0 0 1 130.13187,152.19861 c 0.021,-1.186 0.0388,-2.10171 0.0388,-2.73261 0,-27.4656 13.92736,-51.564623 35.48151,-61.39564 16.4965,-7.524103 166.27673,-74.867356 177.09874,-79.7330949 20.38076,-11.1785691 42.12339,-1.848289 45.60281,-0.216675 7.80454,3.4929129 146.26719,65.4857839 176.18891,81.0821759 30.83728,16.074174 39.06499,44.950884 39.06499,59.479184 0,65.77445 -10.40658,127.24585 -30.93066,182.70691 a 386.47971,423.05757 0 0 1 -69.45395,122.52558 c -56.69722,69.84311 -113.40951,94.6029 -113.95683,94.82112 a 61.969454,67.834473 0 0 1 -21.07603,3.68355 z m -13.33688,-36.16268 c 4.91681,1.20667 16.23682,3.01667 23.61505,0.0704 9.37306,-3.74178 56.84028,-30.68593 101.19701,-85.32699 61.28569,-75.49512 92.38212,-170.39898 92.4276,-282.07522 -0.10944,-2.26245 -1.57728,-18.39941 -21.09946,-28.57498 C 521.65197,105.0549 377.73183,40.636452 376.28146,39.987184 l -0.39763,-0.184524 c -3.01607,-1.383493 -12.6147,-4.297628 -19.23121,-0.502227 l -1.32477,0.676084 c -1.6042,0.721245 -160.59767,72.203633 -177.55443,79.937523 -11.86173,5.41011 -16.08804,18.81292 -16.08804,29.55201 0,0.78479 -0.0185,1.92634 -0.0448,3.4018 -1.35518,76.41315 14.79842,264.44212 193.21265,363.38858 z"
         fill="#3f3d56"
         id="path17"
         style="stroke-width:1.29387" />
      <path
         d="m 351.27166,24.020958 c 0,0 -159.14,72.130897 -176.19073,79.971212 -17.05076,7.84032 -25.57609,26.65706 -25.57609,45.47387 0,18.81681 -12.78799,264.35022 201.76682,383.06515 0,0 19.47294,5.94605 34.24687,0 14.77394,-5.94606 202.33175,-106.30209 202.33175,-383.84924 0,0 0,-28.22511 -29.83875,-43.90575 C 528.17279,89.095566 383.90742,24.020958 383.90742,24.020958 c 0,0 -17.71641,-8.624345 -32.63576,0 z"
         fill="#53b726"
         id="path19"
         style="fill:#58a434;fill-opacity:1;stroke-width:1.28862" />
      <path
         d="m 368.32236,80.47122 v 384.79277 c 0,0 -160.56087,-85.29276 -159.13996,-309.52572 z"
         opacity="0.1"
         id="path21"
         style="stroke-width:1.28862" />
      <polygon
         points="284.224,165.219 192.931,261.581 151.235,207.969 175.483,189.11 195.226,214.494 261.921,144.088 "
         fill="#ffffff"
         id="polygon23"
         transform="matrix(1.2266589,0,0,1.3537112,133.75573,2.9218651)" />
    </g>
  </g>
</svg>
