<?xml version="1.0" encoding="UTF-8" standalone="no"?>
<!-- Created with Inkscape (http://www.inkscape.org/) -->

<svg
   width="210mm"
   height="297mm"
   viewBox="0 0 210 297"
   version="1.1"
   id="svg5"
   inkscape:version="1.1 (c68e22c387, 2021-05-23)"
   sodipodi:docname="seguridadOnColor.svg"
   xmlns:inkscape="http://www.inkscape.org/namespaces/inkscape"
   xmlns:sodipodi="http://sodipodi.sourceforge.net/DTD/sodipodi-0.dtd"
   xmlns="http://www.w3.org/2000/svg"
   xmlns:svg="http://www.w3.org/2000/svg">
  <sodipodi:namedview
     id="namedview7"
     pagecolor="#ffffff"
     bordercolor="#666666"
     borderopacity="1.0"
     inkscape:pageshadow="2"
     inkscape:pageopacity="0.0"
     inkscape:pagecheckerboard="0"
     inkscape:document-units="mm"
     showgrid="false"
     inkscape:zoom="0.46324355"
     inkscape:cx="195.3616"
     inkscape:cy="76.633555"
     inkscape:window-width="1920"
     inkscape:window-height="1017"
     inkscape:window-x="1358"
     inkscape:window-y="-8"
     inkscape:window-maximized="1"
     inkscape:current-layer="g77" />
  <defs
     id="defs2" />
  <g
     inkscape:label="Capa 1"
     inkscape:groupmode="layer"
     id="layer1">
    <g
       id="g77"
       transform="matrix(0.26458333,0,0,0.26458333,-18.684375,72.955129)">
      <path
         d="m 622.69756,517.80392 c 7.18382,12.69813 1.0921,55.58546 1.0921,55.58546 0,0 -39.89068,-16.88557 -47.07316,-29.57842 a 26.41318,26.41318 0 0 1 45.98106,-26.007 z"
         fill="#f1f1f1"
         id="path9"
         style="fill:#93ac9d" />
      <path
         d="m 622.96411,572.52038 -0.84744,0.17853 c -8.16221,-38.77834 -36.66552,-65.075 -36.95246,-65.33607 l 0.58274,-0.64064 c 0.28896,0.26276 28.99561,26.73826 37.21716,65.79818 z"
         fill="#ffffff"
         id="path11" />
      <path
         d="m 687.96901,532.26274 c -9.74791,17.68309 -64.7065,41.63828 -64.7065,41.63828 0,0 -9.06086,-59.2631 0.68177,-76.94077 a 36.55623,36.55623 0 1 1 64.02473,35.30249 z"
         fill="#f1f1f1"
         id="path13"
         style="fill:#93ac9d" />
      <path
         d="m 623.78966,573.38938 -0.82555,-0.869 c 7.36869,-6.99797 13.72551,-14.50774 19.19308,-22.10277 24.0413,-33.39586 30.88981,-68.44009 30.97077,-68.86997 l 1.17793,0.2216 c -0.0998,0.53125 -10.45815,53.57733 -50.51623,91.62014 z"
         fill="#ffffff"
         id="path15"
         sodipodi:nodetypes="ccsccc" />
      <path
         d="m 213.19133,479.31362 a 83.242903,88.784629 0 0 1 -20.63598,-2.84711 l -1.32844,-0.39203 -1.23231,-0.65851 C 145.44238,451.59127 107.85609,420.12214 78.279581,381.88233 A 331.98228,354.08332 0 0 1 21.873392,275.05422 385.50561,411.16985 0 0 1 0.07349581,130.21062 c 0.01882082,-1.03452 0.03476317,-1.83328 0.03476317,-2.38359 0,-23.95761 12.46824302,-44.97862 31.76424902,-53.553987 C 46.640734,67.709944 180.72906,8.9679977 190.41728,4.7237269 208.66283,-5.0270776 228.12757,3.111507 231.24246,4.5347264 238.22935,7.5815133 362.1858,61.656446 388.97273,75.260815 c 27.60658,14.021124 34.9723,39.209605 34.9723,51.882305 0,57.3735 -9.31631,110.99359 -27.69018,159.37096 a 345.98969,369.02324 0 0 1 -62.17751,106.87621 c -50.75729,60.92252 -101.52805,82.5199 -102.01803,82.71024 a 55.477149,59.170427 0 0 1 -18.86797,3.21309 z M 201.2517,447.76975 c 4.4017,1.05255 14.53575,2.63138 21.14099,0.0614 8.39108,-3.26386 50.88534,-26.76662 90.59499,-74.42874 54.86502,-65.85263 82.7036,-148.63505 82.74431,-246.04762 -0.098,-1.97354 -1.41203,-16.04944 -18.88895,-24.92535 C 350.57553,89.088262 221.73336,32.897553 220.43494,32.331212 l -0.35598,-0.160956 c -2.70008,-1.206789 -11.2931,-3.74872 -17.21642,-0.438081 l -1.18598,0.589732 c -1.43614,0.629125 -143.77247,62.981541 -158.952728,69.727633 -10.619019,4.71912 -14.402548,16.41007 -14.402548,25.77753 0,0.68455 -0.01661,1.6803 -0.04008,2.96731 -1.213223,66.65341 13.248023,230.66669 172.970476,316.97537 z"
         fill="#3f3d56"
         id="path17"
         style="stroke-width:1.14337" />
      <path
         d="m 196.31711,18.404246 c 0,0 -143.63002,62.918096 -159.018978,69.757021 -15.388959,6.838925 -23.083399,23.252333 -23.083399,39.665793 0,16.41346 -11.5416606,230.58652 182.102377,334.13879 0,0 17.57508,5.1866 30.90913,0 13.33404,-5.18661 182.61226,-92.72484 182.61226,-334.82273 0,0 0,-24.62011 -26.93063,-38.297963 -26.93063,-13.67785 -157.13571,-70.440911 -157.13571,-70.440911 0,0 -15.98975,-7.522815 -29.45505,0 z"
         fill="#53b726"
         id="path19"
         style="stroke-width:1.14337;fill:#58a434;fill-opacity:1" />
      <path
         d="M 211.70603,67.644491 V 403.29024 c 0,0 -144.912422,-74.39887 -143.630004,-269.99206 z"
         opacity="0.1"
         id="path21"
         style="stroke-width:1.14337" />
      <polygon
         points="261.921,144.088 284.224,165.219 192.931,261.581 151.235,207.969 175.483,189.11 195.226,214.494 "
         fill="#ffffff"
         id="polygon23"
         transform="matrix(1.1071073,0,0,1.1808107,5.3743326e-4,-1.8313636e-7)" />
      <path
         d="M 753.84934,575.9049 H 372.84937 a 1,1 0 0 1 0,-2 h 380.99997 a 1,1 0 0 1 0,2 z"
         fill="#cacaca"
         id="path25" />
      <polygon
         points="547.206,568.237 562.671,568.236 570.029,508.583 547.203,508.584 "
         fill="#ffb8b8"
         id="polygon27"
         transform="translate(-69.078135,-8.6347669)" />
      <path
         d="m 474.18241,554.55277 30.45762,-10e-4 h 10e-4 a 19.411,19.411 0 0 1 19.41,19.40966 v 0.63075 l -49.86791,0.002 z"
         fill="#2f2e41"
         id="path29" />
      <polygon
         points="599.206,568.237 614.671,568.236 622.029,508.583 599.203,508.584 "
         fill="#ffb8b8"
         id="polygon31"
         transform="translate(-69.078135,-8.6347669)" />
      <path
         d="m 526.18241,554.55277 30.45762,-10e-4 h 10e-4 a 19.411,19.411 0 0 1 19.41,19.40966 v 0.63075 l -49.86791,0.002 z"
         fill="#2f2e41"
         id="path33" />
      <polygon
         points="517.817,343.408 571.514,358.75 575.224,548 545.213,546.139 524.393,425.597 "
         fill="#2f2e41"
         id="polygon35"
         transform="translate(-69.078135,-8.6347669)" />
      <path
         d="m 553.94024,318.33613 4.20562,224.0291 -35,-1 -7.56,-133.17025 -13.15012,-48.21688 -53.6962,-25.20436 8.76674,-60.27119 78.90049,-1.09584 z"
         fill="#2f2e41"
         id="path37" />
      <circle
         cx="493.59753"
         cy="90.959122"
         r="26.838261"
         fill="#ffb8b8"
         id="circle39" />
      <polygon
         points="539.734,295.192 533.16,158.211 546.933,140.995 584.936,137.738 589.047,143.966 600.006,174.649 591.239,294.095 "
         fill="#cccccc"
         id="polygon41"
         transform="translate(-69.078135,-8.6347669)" />
      <path
         d="m 443.26034,152.86423 -8.76674,-1.09584 c 0,0 -2.19169,1.09584 -3.2875,8.76671 -1.09581,7.67087 -14.24592,75.613 -14.24592,75.613 l 17.53342,83.28385 19.7251,-26.30016 -12.05417,-46.02526 12.05424,-46.0253 z"
         fill="#2f2e41"
         id="path43" />
      <polygon
         points="616.443,293 620.826,265.604 618.635,241.496 610.964,227.249 624.114,160.404 630.689,160.404 647.127,249.166 631.785,318.204 "
         fill="#2f2e41"
         id="polygon45"
         transform="translate(-69.078135,-8.6347669)" />
      <path
         d="m 509.45654,90.959113 -4.87969,-1.21993 c 0,0 -3.65974,-20.73866 -12.19924,-18.29882 -8.5395,2.43984 -30.498,4.8797 -30.498,-4.87969 0,-9.75939 20.73867,-18.29882 32.93783,-17.0789 12.19916,1.21992 27.77947,5.267 31.71794,23.17848 6.31357,28.712997 -13.02638,35.965487 -13.02638,35.965487 l 0.32185,-1.04544 a 16.28235,16.28235 0 0 0 -4.37432,-16.621187 z"
         fill="#2f2e41"
         id="path47" />
      <path
         d="m 435.58947,151.76842 35.06691,-14.24592 8.2188,-6.02712 24.65642,109.03608 11.5063,-112.32365 45.47733,23.56058 -15.34174,74.51711 -2.19168,28.49185 6.57505,23.01263 c 0,0 23.0126,16.43761 15.34174,33.971 -7.67086,17.53339 -16.43761,18.6293 -16.43761,18.6293 0,0 -37.25859,-35.06688 -39.45021,-43.83362 -2.19162,-8.76674 -5.47918,-24.10847 -5.47918,-24.10847 0,0 -18.6293,70.13377 -40.546,69.0379 -21.9167,-1.09587 -21.91679,-24.10848 -21.91679,-24.10848 l 5.47918,-24.10848 8.76674,-25.20432 -4.38337,-41.64192 z"
         fill="#2f2e41"
         id="path49" />
    </g>
  </g>
</svg>
